<svg width="225" xmlns="http://www.w3.org/2000/svg" height="206" id="screenshot-b7a46fea-90fe-8090-8006-085c4f9503b0" viewBox="0 0 225 206" xmlns:xlink="http://www.w3.org/1999/xlink" fill="none" version="1.1"><g id="shape-b7a46fea-90fe-8090-8006-085c4f9503b0" rx="0" ry="0"><g id="shape-b7a46fea-90fe-8090-8006-085bf01f38ae"><g class="fills" id="fills-b7a46fea-90fe-8090-8006-085bf01f38ae"><rect rx="0" ry="0" x="0" y="0" transform="matrix(1.000000, 0.000000, 0.000000, 1.000000, 0.000000, 0.000000)" width="225" height="206" style="fill: rgb(238, 235, 229); fill-opacity: 1;"/></g></g><g id="shape-b7a46fea-90fe-8090-8006-0852e4313a0b" rx="0" ry="0"><g id="shape-b7a46fea-90fe-8090-8006-085044354b17"><g class="fills" id="fills-b7a46fea-90fe-8090-8006-085044354b17"><path d="M74.853,89.297C74.853,89.297,72.318,86.395,69.407,85.381C65.089,83.877,56.898,85.320,53.749,90.602C52.302,93.030,51.195,94.571,51.026,97.128C50.594,103.663,55.536,110.915,65.323,112.791C72.662,114.198,80.855,118.434,86.427,124.538C91.191,129.757,93.688,136.857,93.688,144.678C93.688,152.102,96.834,156.587,100.042,159.779C104.168,163.883,108.467,165.000,112.296,165.000C119.104,165.000,131.812,159.036,131.812,144.678C131.812,130.321,139.981,121.184,148.151,117.269C150.236,116.269,160.058,112.843,163.355,111.486C173.672,107.240,177.580,97.987,170.163,89.297C167.717,86.431,165.476,85.416,162.674,84.729C161.604,84.466,160.360,84.028,159.270,84.076C157.995,84.133,156.848,84.744,155.186,85.381C151.282,86.878,148.825,90.421,146.763,94.783C145.655,97.128,145.182,98.179,144.293,99.739C143.347,101.399,142.251,103.002,141.343,104.216C138.606,107.878,133.751,110.999,128.635,112.791C122.461,114.954,115.956,115.401,112.977,115.401C109.360,115.401,102.116,115.471,95.277,112.791C91.817,111.435,89.150,109.528,85.746,106.265C84.065,104.653,82.018,101.660,80.300,98.434C78.470,94.999,76.960,91.316,74.853,89.297ZM146.763,94.783" style="fill: rgb(12, 45, 72); fill-opacity: 1;"/></g></g><g id="shape-b7a46fea-90fe-8090-8006-0852844e1062"><g class="fills" id="fills-b7a46fea-90fe-8090-8006-0852844e1062"><ellipse cx="112.61060991666636" cy="64.49403421693194" rx="23.48691759254143" ry="23.494034216931936" transform="matrix(1.000000, 0.000000, 0.000000, 1.000000, 0.000000, 0.000000)" style="fill: rgb(12, 45, 72); fill-opacity: 1;"/></g></g></g></g></svg>