<svg width="750" xmlns="http://www.w3.org/2000/svg" height="750" id="screenshot-6c0c4372-1ec9-80fa-8006-0ac6fbe9dcef" viewBox="0 0 750 750" xmlns:xlink="http://www.w3.org/1999/xlink" fill="none" version="1.1"><g id="shape-6c0c4372-1ec9-80fa-8006-0ac6fbe9dcef" rx="0" ry="0"><g id="shape-6c0c4372-1ec9-80fa-8006-0ac69ea06969"><defs><linearGradient id="fill-color-gradient-render-2-0" x1="0.5" y1="0" x2="0.5" y2="1" gradientTransform=""><stop offset="0" stop-color="#65d1de" stop-opacity="1"/><stop offset="1" stop-color="#3c2c8c" stop-opacity="1"/></linearGradient><pattern patternUnits="userSpaceOnUse" x="0" y="0" width="750" height="750" id="fill-0-render-2"><g><rect width="750" height="750" style="fill: url(&quot;#fill-color-gradient-render-2-0&quot;);"/></g></pattern></defs><g class="fills" id="fills-6c0c4372-1ec9-80fa-8006-0ac69ea06969"><ellipse cx="375" cy="375" rx="375" ry="375" transform="matrix(1.000000, 0.000000, 0.000000, 1.000000, 0.000000, 0.000000)" fill="url(#fill-0-render-2)"/></g></g><g id="shape-6c0c4372-1ec9-80fa-8006-0ac69c20ce14" rx="0" ry="0"><g id="shape-6c0c4372-1ec9-80fa-8006-0ac69c20ce15"><g class="fills" id="fills-6c0c4372-1ec9-80fa-8006-0ac69c20ce15"><path d="M221.965,322.357C221.965,322.357,211.659,310.758,199.826,306.703C182.272,300.689,148.975,306.459,136.176,327.575C130.294,337.279,125.794,343.443,125.106,353.665C123.348,379.788,143.440,408.780,183.222,416.281C213.058,421.907,246.362,438.841,269.011,463.243C288.377,484.108,298.529,512.491,298.529,543.759C298.529,573.436,311.315,591.367,324.359,604.128C341.130,620.535,358.606,625.000,374.172,625.000C401.846,625.000,453.504,601.156,453.504,543.759C453.504,486.361,486.713,449.835,519.921,434.181C528.399,430.185,568.324,416.488,581.727,411.063C623.666,394.089,639.551,357.098,609.401,322.357C599.458,310.900,590.350,306.840,578.960,304.094C574.609,303.046,569.554,301.291,565.123,301.485C559.941,301.712,555.278,304.154,548.518,306.703C532.649,312.688,522.663,326.850,514.281,344.289C509.775,353.665,507.852,357.867,504.240,364.101C500.395,370.737,495.938,377.146,492.247,382.001C481.122,396.638,461.386,409.116,440.590,416.281C415.491,424.929,389.047,426.717,376.940,426.717C362.238,426.717,332.789,426.995,304.987,416.281C290.923,410.861,280.081,403.236,266.244,390.191C259.409,383.747,251.090,371.782,244.104,358.883C236.668,345.153,230.527,330.429,221.965,322.357ZM514.281,344.289" style="fill: rgb(250, 250, 250); fill-opacity: 1;"/></g></g><g id="shape-6c0c4372-1ec9-80fa-8006-0ac69c20ce16"><g class="fills" id="fills-6c0c4372-1ec9-80fa-8006-0ac69c20ce16"><ellipse cx="370.00000000186265" cy="218.13725490123034" rx="94.99999999813735" ry="93.13725490123034" transform="matrix(1.000000, 0.000000, 0.000000, 1.000000, 0.000000, 0.000000)" style="fill: rgb(250, 250, 250); fill-opacity: 1;"/></g></g></g></g></svg>